<svg width="210" height="280" viewBox="0 0 21 28" fill="#ffffff" xmlns="http://www.w3.org/2000/svg">
<path d="M10.3544 13.248C13.3371 13.248 15.7552 10.3012 15.7552 6.66603C15.7552 3.03082 14.9613 0.0839844 10.3544 0.0839844C5.74744 0.0839844 4.95337 3.03082 4.95337 6.66603C4.95337 10.3012 7.37154 13.248 10.3544 13.248Z" />
<path d="M0.164951 23.2975C0.163751 23.0759 0.162551 23.2351 0.164951 23.2975V23.2975Z" />
<path d="M20.5663 23.4709C20.5701 23.4102 20.5676 23.0499 20.5663 23.4709V23.4709Z" />
<path d="M20.5435 23.033C20.4435 16.7005 19.6192 14.8961 13.3116 13.7539C13.3116 13.7539 12.4237 14.8891 10.3542 14.8891C8.28474 14.8891 7.3967 13.7539 7.3967 13.7539C1.15793 14.8836 0.283531 16.6613 0.168559 22.8273C0.159131 23.3308 0.154762 23.3572 0.153076 23.2988C0.153459 23.4083 0.153919 23.6109 0.153919 23.9641C0.153919 23.9641 1.65561 27.0015 10.3542 27.0015C19.0527 27.0015 20.5546 23.9641 20.5546 23.9641C20.5546 23.7371 20.5547 23.5793 20.5549 23.472C20.5533 23.5081 20.5499 23.4381 20.5435 23.033Z" />
</svg>
